<?xml version="1.0" encoding="utf-8"?>
<!-- Uploaded to: SVG Repo, www.svgrepo.com, Generator: SVG Repo Mixer Tools -->
<svg width="800px" height="800px" viewBox="0 0 1024 1024" class="icon"  version="1.1" xmlns="http://www.w3.org/2000/svg"><path d="M305.9 772h286.2l126-125.9v-422H305.9zM484.2 851.3c0-15.4 12.5-27.8 27.8-27.8 7.9 0 15 3.3 20.1 8.6l30.1-30.1H305.9v92c0 2.7 2.3 5 5 5h154.3l27.5-27.5c-5.3-5.2-8.5-12.3-8.5-20.2zM718.1 194.1V130c0-2.7-2.3-5-5-5H310.9c-2.7 0-5 2.3-5 5v64.1h412.2z m-254.5-38.9c0-3.4 2.8-6.2 6.2-6.2h84.5c3.4 0 6.2 2.8 6.2 6.2v4.8c0 3.4-2.8 6.2-6.2 6.2h-84.5c-3.4 0-6.2-2.8-6.2-6.2v-4.8zM634.6 772h83.5v-83.5zM604.6 802l-97 96.9H606l96.9-96.9zM713.1 898.9c2.7 0 5-2.3 5-5v-64.7l-69.7 69.7h64.7z" fill="#FFBC00" /><path d="M713.1 95.1H310.9c-19.3 0-35 15.7-35 35V894c0 19.3 15.7 35 35 35H713c19.3 0 35-15.7 35-35V130.1c0.1-19.3-15.6-35-34.9-35z m-402.2 30H713c2.7 0 5 2.3 5 5v64.1H305.9v-64.1c0-2.7 2.3-5 5-5zM634.6 772l83.5-83.5V772h-83.5z m83.5-125.9L592.1 772H305.9V224.1H718v422z m-416.5-437z m0 577.9z m9.3 111.9c-2.7 0-5-2.3-5-5v-92h256.2l-30 30.1c4.8 5 7.8 11.8 7.8 19.3 0 15.4-12.5 27.8-27.9 27.8-7.5 0-14.3-3-19.3-7.8l-27.5 27.5H310.9z m196.7 0l97-97h98.3l-97 97h-98.3z m210.5-5c0 2.7-2.3 5-5 5h-64.7l69.7-69.7v64.7z m4.3-106.9z m0-577.9z" fill="#46287C" /><path d="M469.7 166.2h84.5c3.4 0 6.2-2.8 6.2-6.2v-4.8c0-3.4-2.8-6.2-6.2-6.2h-84.5c-3.4 0-6.2 2.8-6.2 6.2v4.8c0.1 3.4 2.8 6.2 6.2 6.2zM512 823.5c-15.4 0-27.8 12.5-27.8 27.8 0 7.9 3.3 15 8.6 20.1 5 4.8 11.8 7.8 19.3 7.8 15.4 0 27.9-12.5 27.9-27.8 0-7.5-3-14.3-7.8-19.3-5.2-5.3-12.3-8.6-20.2-8.6z" fill="#FFFFFF" /></svg>